<svg xmlns="http://www.w3.org/2000/svg" xmlns:xlink="http://www.w3.org/1999/xlink" version="1.0" x="0" y="0" width="2400" height="1077.5460246537305" viewBox="90.04730560302734 89.10303833007812 159.90538879394532 71.79392333984374" preserveAspectRatio="xMidYMid meet" color-interpolation-filters="sRGB"><g><defs><linearGradient id="92" x1="0%" y1="0%" x2="100%" y2="0%"><stop offset="0%" stop-color="#fa71cd"></stop> <stop offset="100%" stop-color="#9b59b6"></stop></linearGradient><linearGradient id="93" x1="0%" y1="0%" x2="100%" y2="0%"><stop offset="0%" stop-color="#f9d423"></stop> <stop offset="100%" stop-color="#f83600"></stop></linearGradient><linearGradient id="94" x1="0%" y1="0%" x2="100%" y2="0%"><stop offset="0%" stop-color="#0064d2"></stop> <stop offset="100%" stop-color="#1cb0f6"></stop></linearGradient><linearGradient id="95" x1="0%" y1="0%" x2="100%" y2="0%"><stop offset="0%" stop-color="#f00978"></stop> <stop offset="100%" stop-color="#3f51b1"></stop></linearGradient><linearGradient id="96" x1="0%" y1="0%" x2="100%" y2="0%"><stop offset="0%" stop-color="#7873f5"></stop> <stop offset="100%" stop-color="#ec77ab"></stop></linearGradient><linearGradient id="97" x1="0%" y1="0%" x2="100%" y2="0%"><stop offset="0%" stop-color="#f9d423"></stop> <stop offset="100%" stop-color="#e14fad"></stop></linearGradient><linearGradient id="98" x1="0%" y1="0%" x2="100%" y2="0%"><stop offset="0%" stop-color="#009efd"></stop> <stop offset="100%" stop-color="#2af598"></stop></linearGradient><linearGradient id="99" x1="0%" y1="0%" x2="100%" y2="0%"><stop offset="0%" stop-color="#ffcc00"></stop> <stop offset="100%" stop-color="#00b140"></stop></linearGradient><linearGradient id="100" x1="0%" y1="0%" x2="100%" y2="0%"><stop offset="0%" stop-color="#d51007"></stop> <stop offset="100%" stop-color="#ff8177"></stop></linearGradient><linearGradient id="102" x1="0%" y1="0%" x2="100%" y2="0%"><stop offset="0%" stop-color="#a2b6df"></stop> <stop offset="100%" stop-color="#0c3483"></stop></linearGradient><linearGradient id="103" x1="0%" y1="0%" x2="100%" y2="0%"><stop offset="0%" stop-color="#7ac5d8"></stop> <stop offset="100%" stop-color="#eea2a2"></stop></linearGradient><linearGradient id="104" x1="0%" y1="0%" x2="100%" y2="0%"><stop offset="0%" stop-color="#00ecbc"></stop> <stop offset="100%" stop-color="#007adf"></stop></linearGradient><linearGradient id="105" x1="0%" y1="0%" x2="100%" y2="0%"><stop offset="0%" stop-color="#b88746"></stop> <stop offset="100%" stop-color="#fdf5a6"></stop></linearGradient></defs><g fill="#ffffff" class="icon-text-wrapper icon-svg-group iconsvg" transform="translate(91.61500549316406,90.67073822021484)"><g class="iconsvg-imagesvg" transform="translate(0,0)"><g><rect fill="#ffffff" fill-opacity="0" stroke-width="2" x="0" y="0" width="60" height="68.65852681687628" class="image-rect"></rect> <svg x="0" y="0" width="60" height="68.65852681687628" filtersec="colorsb4812394413" class="image-svg-svg primary" style="overflow: visible;"><svg xmlns="http://www.w3.org/2000/svg" viewBox="0 0 168.84500122070312 193.2100067138672"><path fill="none" pointer-events="none" d="M0 0h168.845v193.21H0z"></path><path d="M104.422 48.345h-95l40-40h15z" class="st8" opacity=".8" fill="#ffffff"></path><path d="M64.422 8.345v140l40 40v-140zM9.422 48.345v140h40v-180zM119.422 188.345v-180h40v140z" class="st8" opacity=".8" fill="#ffffff"></path><path d="M64.422 148.345h95l-40 40h-15z" class="st8" opacity=".8" fill="#ffffff"></path></svg></svg> </g></g> <g transform="translate(67,11.089262008666992)"><g fill-rule="" class="tp-name iconsvg-namesvg"><g transform="scale(1)"><g><path d="M36.01 1.89L13.33-27.69 14.43-10.66Q14.5-9.17 14.76-8.71 15.02-8.26 15.93-7.74L15.93-7.74 19.3-5.46 19.05 0 2.15 0 1.82-7.08 5.33-7.93 5.59-33.54Q5.59-34.77 5.4-35.23 5.2-35.69 4.49-36.27L4.49-36.27 2.08-38.09 2.54-43.81 15.99-43.81 35.62-18.66 34.71-33.15Q34.65-34.71 34.38-35.16 34.13-35.62 33.22-36.14L33.22-36.14 29.84-38.35 30.03-43.81 46.8-43.81 47.06-37.18 43.75-35.75 43.48-0.58 36.01 1.89ZM51.02 0L50.7-6.63 55.45-7.93 55.45-32.7Q55.45-34.38 55.19-34.94 54.93-35.49 53.82-35.95L53.82-35.95 50.44-37.83 50.83-43.16Q60.58-44.59 69.62-44.59L69.62-44.59Q76.64-44.59 80.93-43.19 85.22-41.8 87.2-38.84 89.18-35.88 89.18-31.01L89.18-31.01Q89.18-26.98 87.1-23.95 85.02-20.93 81.19-19.3L81.19-19.3 91.59-2.54 91.52 0 79.69 0 70.07-17.36 67.21-17.42 67.21-10.14Q67.21-8.58 67.44-8.16 67.67-7.74 68.58-7.21L68.58-7.21 71.37-5.59 71.11 0 51.02 0ZM71.37-24.7Q74.81-24.7 76.44-25.35L76.44-25.35Q77.09-27.69 77.09-30.94L77.09-30.94Q77.09-34.19 75.69-35.55 74.3-36.92 71.05-36.92L71.05-36.92Q69.22-36.92 67.34-36.73L67.34-36.73 67.34-25.09Q69.03-24.7 71.37-24.7L71.37-24.7Z" transform="translate(-1.8199999332427979, 44.59000015258789)"></path></g> </g></g> </g></g><defs v-gra="od"></defs></g></svg>