<svg xmlns="http://www.w3.org/2000/svg" width="2400" height="1077.546"
     viewBox="90.047 89.103 159.905 71.794">
    <g transform="translate(91.615 90.67)">
        <path fill="none" d="M0 0h60v68.659H0z"/>
        <svg width="60" height="68.659" overflow="visible">
            <svg xmlns="http://www.w3.org/2000/svg" viewBox="0 0 168.845 193.21">
                <path fill="none" d="M0 0h168.845v193.21H0z"/>
                <path d="M104.422 48.345h-95l40-40h15z" opacity=".8"/>
                <path d="M64.422 8.345v140l40 40v-140zm-55 40v140h40v-180zm110 140v-180h40v140z" opacity=".8"/>
                <path d="M64.422 148.345h95l-40 40h-15z" opacity=".8"/>
            </svg>
        </svg>
    </g>
    <path d="m192.805 148.24-22.68-29.58 1.1 17.03q.07 1.49.33 1.95.26.45 1.17.97l3.37 2.28-.25 5.46h-16.9l-.33-7.08 3.51-.85.26-25.61q0-1.23-.19-1.69-.2-.46-.91-1.04l-2.41-1.82.46-5.72h13.45l19.63 25.15-.91-14.49q-.06-1.56-.33-2.01-.25-.46-1.16-.98l-3.38-2.21.19-5.46h16.77l.26 6.63-3.31 1.43-.27 35.17-7.47 2.47zm15.01-1.89-.32-6.63 4.75-1.3v-24.77q0-1.68-.26-2.24-.26-.55-1.37-1.01l-3.38-1.88.39-5.33q9.75-1.43 18.79-1.43 7.02 0 11.31 1.4 4.29 1.39 6.27 4.35 1.98 2.96 1.98 7.83 0 4.03-2.08 7.06-2.08 3.02-5.91 4.65l10.4 16.76-.07 2.54h-11.83l-9.62-17.36-2.86-.06v7.28q0 1.56.23 1.98.23.42 1.14.95l2.79 1.62-.26 5.59h-20.09zm20.35-24.7q3.44 0 5.07-.65.65-2.34.65-5.59t-1.4-4.61q-1.39-1.37-4.64-1.37-1.83 0-3.71.19v11.64q1.69.39 4.03.39z"/>
</svg>